<?xml version="1.0" encoding="UTF-8"?>
<svg id="Layer_1" data-name="Layer 1" xmlns="http://www.w3.org/2000/svg" viewBox="0 0 1276.47 371.2">
  <defs>
    <style>
      .cls-1 {
        isolation: isolate;
      }

      .cls-2 {
        fill: #28396c;
      }
    </style>
  </defs>
  <g class="cls-1">
    <g class="cls-1">
      <path class="cls-2" d="M42.56,274.56c-15.36,0-23.04-7.25-23.04-21.76v-76.8c0-20.48,6.56-36.69,19.68-48.64,13.12-11.95,30.45-17.92,52-17.92s38.88,5.97,52,17.92c13.12,11.95,19.68,28.16,19.68,48.64v76.8c0,14.51-7.68,21.76-23.04,21.76s-23.04-7.25-23.04-21.76v-74.24c0-10.02-2.24-17.65-6.72-22.88-4.48-5.22-10.77-7.84-18.88-7.84s-14.4,2.62-18.88,7.84c-4.48,5.23-6.72,12.86-6.72,22.88v74.24c0,14.51-7.68,21.76-23.04,21.76Z"/>
    </g>
    <g class="cls-1">
      <path class="cls-2" d="M267.52,274.56c-22.83,0-40.85-6.5-54.08-19.52-13.23-13.01-19.84-34.03-19.84-63.04s6.61-50.29,19.84-63.2c13.23-12.91,31.25-19.36,54.08-19.36s40.85,6.45,54.08,19.36c13.22,12.91,19.84,33.98,19.84,63.2s-6.62,50.03-19.84,63.04c-13.23,13.01-31.26,19.52-54.08,19.52ZM267.52,236.16c5.97,0,10.98-1.23,15.04-3.68,4.05-2.45,7.2-6.88,9.44-13.28,2.24-6.4,3.36-15.46,3.36-27.2s-1.12-20.8-3.36-27.2c-2.24-6.4-5.39-10.83-9.44-13.28-4.06-2.45-9.07-3.68-15.04-3.68s-10.72,1.23-14.88,3.68c-4.16,2.46-7.36,6.88-9.6,13.28-2.24,6.4-3.36,15.47-3.36,27.2s1.12,20.8,3.36,27.2c2.24,6.4,5.44,10.83,9.6,13.28,4.16,2.45,9.12,3.68,14.88,3.68Z"/>
    </g>
    <g class="cls-1">
      <path class="cls-2" d="M418.88,253.12c0,14.29-7.47,21.44-22.4,21.44-7.25,0-13.02-1.81-17.28-5.44-4.27-3.62-6.4-8.96-6.4-16V120.96c0-25.17,5.39-44.21,16.16-57.12,10.77-12.91,26.72-19.36,47.84-19.36,15.57,0,28.48,3.2,38.72,9.6,10.24,6.4,17.06,15.58,20.48,27.52,3.41-11.94,10.24-21.12,20.48-27.52,10.24-6.4,23.36-9.6,39.36-9.6,21.76,0,37.87,6.24,48.32,18.72,10.45,12.48,15.68,31.73,15.68,57.76v128.96c0,8.75-1.71,15.04-5.12,18.88-3.42,3.84-9.17,5.76-17.28,5.76s-14.08-1.97-17.92-5.92c-3.84-3.94-5.76-10.18-5.76-18.72V118.4c0-21.12-9.07-31.68-27.2-31.68-9.18,0-16,3.04-20.48,9.12s-6.72,15.74-6.72,28.96v121.92c0,8.75-1.71,15.04-5.12,18.88-3.42,3.84-9.17,5.76-17.28,5.76s-14.08-1.97-17.92-5.92c-3.84-3.95-5.76-10.19-5.76-18.72v-121.92c0-25.38-9.07-38.08-27.2-38.08s-27.2,10.56-27.2,31.68v134.72Z"/>
    </g>
    <g class="cls-1">
      <path class="cls-2" d="M677.76,274.56c-15.36,0-23.04-7.25-23.04-21.76v-76.8c0-20.48,6.56-36.69,19.68-48.64,13.12-11.95,30.45-17.92,52-17.92s38.88,5.97,52,17.92c13.12,11.95,19.68,28.16,19.68,48.64v76.8c0,14.51-7.68,21.76-23.04,21.76s-23.04-7.25-23.04-21.76v-74.24c0-10.02-2.24-17.65-6.72-22.88-4.48-5.22-10.78-7.84-18.88-7.84s-14.4,2.62-18.88,7.84c-4.48,5.23-6.72,12.86-6.72,22.88v74.24c0,14.51-7.68,21.76-23.04,21.76Z"/>
    </g>
    <g class="cls-1">
      <path class="cls-2" d="M902.71,274.56c-22.83,0-40.85-6.5-54.08-19.52-13.23-13.01-19.84-34.03-19.84-63.04s6.61-50.29,19.84-63.2c13.23-12.91,31.25-19.36,54.08-19.36s40.85,6.45,54.08,19.36c13.22,12.91,19.84,33.98,19.84,63.2s-6.62,50.03-19.84,63.04c-13.23,13.01-31.25,19.52-54.08,19.52ZM902.71,236.16c5.97,0,10.99-1.23,15.04-3.68,4.05-2.45,7.2-6.88,9.44-13.28,2.24-6.4,3.36-15.46,3.36-27.2s-1.12-20.8-3.36-27.2c-2.24-6.4-5.39-10.83-9.44-13.28-4.05-2.45-9.07-3.68-15.04-3.68s-10.72,1.23-14.88,3.68c-4.16,2.46-7.36,6.88-9.6,13.28-2.24,6.4-3.36,15.47-3.36,27.2s1.12,20.8,3.36,27.2c2.24,6.4,5.44,10.83,9.6,13.28,4.16,2.45,9.12,3.68,14.88,3.68Z"/>
    </g>
    <g class="cls-1">
      <path class="cls-2" d="M1054.07,253.12c0,14.29-7.47,21.44-22.4,21.44-7.25,0-13.01-1.81-17.28-5.44-4.27-3.62-6.4-8.96-6.4-16V120.96c0-25.17,5.38-44.21,16.16-57.12,10.77-12.91,26.72-19.36,47.84-19.36,15.57,0,28.48,3.2,38.72,9.6s17.07,15.58,20.48,27.52c3.41-11.94,10.24-21.12,20.48-27.52s23.36-9.6,39.36-9.6c21.76,0,37.87,6.24,48.32,18.72,10.45,12.48,15.68,31.73,15.68,57.76v128.96c0,8.75-1.71,15.04-5.12,18.88-3.42,3.84-9.17,5.76-17.28,5.76s-14.08-1.97-17.92-5.92c-3.84-3.94-5.76-10.18-5.76-18.72V118.4c0-21.12-9.07-31.68-27.2-31.68-9.17,0-16,3.04-20.48,9.12-4.48,6.08-6.72,15.74-6.72,28.96v121.92c0,8.75-1.71,15.04-5.12,18.88-3.42,3.84-9.17,5.76-17.28,5.76s-14.08-1.97-17.92-5.92c-3.84-3.95-5.76-10.19-5.76-18.72v-121.92c0-25.38-9.07-38.08-27.2-38.08s-27.2,10.56-27.2,31.68v134.72Z"/>
    </g>
  </g>
</svg>