<?xml version="1.0" encoding="UTF-8"?>
<svg xmlns="http://www.w3.org/2000/svg" version="1.1" viewBox="0 0 24 24">
  <defs>
    <style>
      .cls-1 {
        fill: #e0a800;
        stroke: #e0a800;
        stroke-linecap: round;
        stroke-linejoin: round;
        stroke-width: 2px;
      }
    </style>
  </defs>
  <g>
    <g id="Layer_1">
      <path class="cls-1" d="M11.5,2.3c.1-.3.4-.4.7-.2.1,0,.2.1.2.2l2.3,4.7c.3.6.9,1.1,1.6,1.2l5.2.8c.3,0,.5.3.4.6,0,.1,0,.2-.2.3l-3.7,3.6c-.5.5-.7,1.2-.6,1.9l.9,5.1c0,.3-.1.6-.4.6-.1,0-.2,0-.3,0l-4.6-2.4c-.6-.3-1.4-.3-2,0l-4.6,2.4c-.3.1-.6,0-.7-.2,0-.1,0-.2,0-.3l.9-5.1c.1-.7-.1-1.4-.6-1.9l-3.7-3.6c-.2-.2-.2-.5,0-.7,0,0,.2-.1.3-.2l5.2-.8c.7-.1,1.3-.5,1.6-1.2l2.3-4.7Z"/>
    </g>
  </g>
</svg>